<?xml version="1.0" standalone="no"?>
<!DOCTYPE svg PUBLIC "-//W3C//DTD SVG 20010904//EN"
 "http://www.w3.org/TR/2001/REC-SVG-20010904/DTD/svg10.dtd">
<svg version="1.0" xmlns="http://www.w3.org/2000/svg"
 width="260.000000pt" height="260.000000pt" viewBox="0 0 260.000000 260.000000"
 preserveAspectRatio="xMidYMid meet">
<metadata>
Created by potrace 1.11, written by Peter Selinger 2001-2013
</metadata>
<g transform="translate(0.000000,260.000000) scale(0.100000,-0.100000)"
fill="#000000" stroke="none">
<path d="M1638 2535 c-2 -2 -25 -6 -53 -9 -226 -28 -418 -64 -427 -80 -25 -45
-225 -61 -257 -21 -11 15 -27 20 -51 19 -96 -3 -316 -16 -330 -19 -9 -2 -56
-6 -106 -10 -81 -7 -110 -17 -98 -36 4 -7 9 -219 20 -909 3 -217 7 -480 9
-585 2 -104 4 -282 4 -395 l1 -206 172 -73 c95 -40 197 -84 227 -97 29 -13 62
-24 73 -24 10 0 29 -7 42 -15 28 -18 39 -17 246 20 80 14 160 28 179 31 18 3
43 8 55 10 11 2 46 8 76 14 71 12 99 18 130 25 43 10 123 25 162 29 21 3 63
10 95 15 32 6 72 13 88 15 17 3 41 8 55 10 14 3 42 8 63 11 50 7 125 24 157
36 25 9 25 11 27 137 0 70 4 244 7 387 8 306 13 553 21 910 15 708 15 695 2
696 -6 0 -19 2 -27 4 -8 1 -31 5 -50 9 -19 3 -46 8 -60 11 -14 3 -63 10 -110
16 -47 6 -142 26 -212 44 -70 18 -128 32 -130 30z"/>
</g>
</svg>
